<svg width="24" height="24" viewBox="0 0 24 24" fill="none" xmlns="http://www.w3.org/2000/svg">
<path d="M23.9929 7.64394C23.9553 7.79419 23.924 7.94444 23.8802 8.09469C23.6548 8.87098 23.179 9.44693 22.4654 9.8163C20.7813 10.6865 19.0973 11.5504 17.4132 12.4206C16.3302 12.9778 15.2534 13.5412 14.1703 14.0921C12.7179 14.8183 11.253 14.8246 9.80685 14.0859C7.05228 12.6773 4.2977 11.2624 1.55565 9.83508C0.547728 9.3092 0.00933484 8.45779 0.00933484 7.3184C0.00933484 6.17901 0.541468 5.32759 1.54939 4.80172C4.30396 3.37435 7.0648 1.9595 9.82563 0.538394C10.3265 0.281718 10.8586 0.106427 11.422 0.0375624C11.4596 0.031302 11.4909 0.0125208 11.5285 0C11.8415 0 12.1545 0 12.4675 0C12.5051 0.0125208 12.5364 0.031302 12.5739 0.0375624C13.1436 0.106427 13.682 0.281718 14.1954 0.544654C15.1157 1.02044 16.0422 1.49623 16.9625 1.96576C18.7968 2.91108 20.6373 3.8564 22.4716 4.80798C23.1853 5.17734 23.6611 5.7533 23.8865 6.52959C23.9303 6.67984 23.9616 6.83009 23.9992 6.98034C23.9929 7.20571 23.9929 7.42483 23.9929 7.64394ZM12.0042 1.87812C11.566 1.87812 11.1466 1.96576 10.7647 2.1661C7.97882 3.59973 5.18668 5.03962 2.4008 6.47325C2.16917 6.59219 2.0064 6.77375 1.92501 7.02416C1.77477 7.49995 1.98136 7.93818 2.48219 8.19485C5.18668 9.59092 7.89117 10.9807 10.5957 12.3768C11.5347 12.8588 12.455 12.8714 13.3941 12.3831C16.0985 10.987 18.803 9.59092 21.5075 8.20738C21.8769 8.01956 22.121 7.74411 22.121 7.3184C22.121 6.88643 21.8831 6.61724 21.5075 6.42942C18.7905 5.03336 16.0798 3.63729 13.369 2.23496C12.937 2.01585 12.4926 1.87812 12.0042 1.87812Z" fill="#BDBDBD"/>
<path d="M23.9929 13.1719C23.8489 13.5538 23.5422 13.7541 23.1916 13.9419C20.2554 15.507 17.3193 17.0784 14.3895 18.6622C12.7931 19.5262 11.2092 19.5262 9.61278 18.6685C6.60153 17.0471 3.57776 15.4319 0.56651 13.8104C0.153324 13.5913 -0.0470087 13.2219 0.00933484 12.8213C0.0656784 12.4144 0.372438 12.07 0.791884 12.0387C1.01726 12.02 1.28019 12.0826 1.48053 12.189C3.57776 13.2971 5.66247 14.4177 7.75344 15.5383C8.70502 16.0454 9.65034 16.5587 10.5957 17.0658C11.5285 17.5667 12.4613 17.5729 13.3878 17.0721C16.4303 15.4381 19.4792 13.8042 22.5217 12.1765C23.1603 11.8384 23.7049 12.045 23.9616 12.7211C23.9679 12.7336 23.9804 12.7462 23.9929 12.7587C23.9929 12.8901 23.9929 13.0341 23.9929 13.1719Z" fill="#BDBDBD"/>
<path d="M23.9929 17.8108C23.8802 18.1802 23.6235 18.3993 23.2917 18.5746C20.3118 20.1647 17.3381 21.7611 14.3644 23.3638C12.7931 24.2089 11.2217 24.2152 9.65034 23.3638C6.62657 21.7361 3.6028 20.1209 0.579031 18.4932C0.159584 18.2678 -0.0470087 17.8859 0.0155952 17.4853C0.0844596 17.0784 0.397479 16.7403 0.810665 16.7152C1.03604 16.7027 1.29272 16.7716 1.49931 16.878C4.10989 18.2616 6.71421 19.6639 9.31854 21.06C9.7505 21.2916 10.1887 21.5232 10.6207 21.7549C11.5347 22.2494 12.4613 22.2557 13.3753 21.7674C15.4349 20.6718 17.4884 19.5637 19.5418 18.4619C20.5059 17.9485 21.4825 17.454 22.4215 16.9031C22.9975 16.565 23.7049 16.6276 23.9992 17.4352C23.9929 17.5667 23.9929 17.6856 23.9929 17.8108Z" fill="#BDBDBD"/>
</svg>
