<svg width="24" height="24" viewBox="0 0 24 24" fill="none" xmlns="http://www.w3.org/2000/svg">
<path d="M17.5312 22.125H6.46873C5.95311 22.125 5.53123 22.5469 5.53123 23.0625C5.53123 23.5781 5.95311 24 6.46873 24H17.5312C18.0469 24 18.4687 23.5781 18.4687 23.0625C18.4687 22.5469 18.0469 22.125 17.5312 22.125Z" fill="#BDBDBD"/>
<path d="M17.5312 0C14.7984 0 12.9562 1.31719 12 2.24062C11.0437 1.31719 9.20155 0 6.46873 0C2.70467 0 -1.52588e-05 3.16875 -1.52588e-05 6.97031C-1.52588e-05 9.17812 0.956235 11.4656 2.76092 13.575C4.73436 15.8813 7.70623 18.0047 11.5922 19.8844C11.7234 19.9453 11.8594 19.9781 12 19.9781C12.1406 19.9781 12.2812 19.9453 12.4078 19.8844C16.2937 18.0047 19.2609 15.8813 21.239 13.575C23.0437 11.4656 24 9.18281 24 6.97031C24 3.17344 21.3 0 17.5312 0ZM19.814 12.3563C18.075 14.3859 15.45 16.2797 12 17.9953C8.54998 16.2797 5.92498 14.3859 4.18592 12.3563C2.65311 10.5656 1.87498 8.75156 1.87498 6.97031C1.87498 4.2375 3.72186 1.875 6.46873 1.875C7.76248 1.875 8.95311 2.25469 9.99842 3.00937C10.7812 3.57187 11.1984 4.14375 11.2265 4.18594C11.4 4.44375 11.6859 4.59375 11.9953 4.59375H12C12.3094 4.59375 12.5953 4.43906 12.7687 4.18125C12.7875 4.15781 14.3906 1.875 17.5312 1.875C20.2781 1.875 22.125 4.2375 22.125 6.97031C22.125 8.75156 21.3469 10.5656 19.814 12.3563Z" fill="#BDBDBD"/>
</svg>
