<svg width="24" height="24" viewBox="0 0 24 24" fill="none" xmlns="http://www.w3.org/2000/svg">
<path d="M4.40625 24C4.00625 23.8563 3.575 23.7625 3.21875 23.55C2.3625 23.0375 1.9 22.2375 1.89375 21.2437C1.875 18.4062 1.875 15.575 1.89375 12.7375C1.9 11.8375 2.275 11.075 3.00625 10.5437C5.45 8.7625 7.9 6.9875 10.3562 5.225C11.3687 4.5 12.625 4.5125 13.6312 5.2375C16.0687 6.9875 18.5 8.75 20.925 10.5125C21.6875 11.0687 22.075 11.8438 22.075 12.7812C22.0875 15.575 22.0813 18.375 22.075 21.1688C22.0688 22.5875 21.075 23.7312 19.6625 23.9562C19.625 23.9625 19.5938 23.9812 19.5562 23.9937C17.6062 23.9937 15.6562 23.9937 13.7062 23.9937C13.0625 23.7437 12.9125 23.5188 12.9125 22.8188C12.9125 21.6812 12.9187 20.5375 12.9062 19.4C12.9062 19.225 12.875 19.0375 12.8062 18.8813C12.6375 18.5 12.1937 18.3 11.7937 18.3813C11.3562 18.475 11.05 18.8438 11.0437 19.3062C11.0375 20.475 11.0437 21.65 11.0437 22.8188C11.0437 23.5188 10.8875 23.7437 10.25 23.9937C8.3 24 6.35625 24 4.40625 24ZM9.175 22.1187C9.175 22.0125 9.175 21.925 9.175 21.8438C9.175 21.0187 9.16875 20.1875 9.175 19.3625C9.175 19.1375 9.19375 18.9062 9.25 18.6875C9.5875 17.2812 10.8875 16.35 12.2687 16.5063C13.7187 16.675 14.7812 17.8687 14.7875 19.35C14.7875 20.1875 14.7875 21.0188 14.7875 21.8563C14.7875 21.9375 14.7875 22.0187 14.7875 22.0938C14.8375 22.1063 14.85 22.1125 14.8625 22.1125C16.3375 22.1125 17.8125 22.1187 19.2812 22.1125C19.8188 22.1062 20.2063 21.6875 20.2063 21.1375C20.2063 18.375 20.2063 15.6062 20.2063 12.8438C20.2063 12.4812 20.0625 12.2 19.7688 11.9875C17.3688 10.25 14.9687 8.5125 12.5625 6.78125C12.1687 6.5 11.7812 6.5 11.3937 6.78125C8.9875 8.51875 6.58125 10.2625 4.16875 12C3.88125 12.2063 3.74375 12.4875 3.74375 12.8438C3.74375 13.2 3.74375 13.5625 3.74375 13.9187C3.74375 16.3187 3.74375 18.7125 3.74375 21.1125C3.74375 21.6875 4.1125 22.1125 4.6625 22.1187C6.1625 22.125 7.65 22.1187 9.175 22.1187Z" fill="#BDBDBD"/>
<path d="M12.2625 0C13.0875 0.10625 13.7125 0.6 14.3563 1.0625C17.3875 3.24375 20.4188 5.41875 23.45 7.6C24.0375 8.01875 24.1187 8.61875 23.6625 9.09375C23.3188 9.45 22.8625 9.4875 22.4375 9.18125C21.5562 8.55 20.675 7.91875 19.8 7.2875C17.4188 5.575 15.0375 3.86875 12.6562 2.15625C12.1438 1.7875 11.8063 1.7875 11.2938 2.15625C8.10625 4.44375 4.9125 6.71875 1.75 9.03125C1.0125 9.56875 0.35625 9.475 0 8.625C0 8.4875 0 8.34375 0 8.2C0.1625 8.00625 0.2875 7.76875 0.4875 7.625C3.525 5.43125 6.56875 3.25 9.60625 1.0625C10.2563 0.6 10.8813 0.10625 11.7 0C11.8875 0 12.075 0 12.2625 0Z" fill="#BDBDBD"/>
</svg>
