<svg width="24" height="24" viewBox="0 0 24 24" fill="none" xmlns="http://www.w3.org/2000/svg">
<path d="M11.225 0C11.725 0 12.225 0 12.725 0C12.7938 0.0125 12.8625 0.03125 12.9312 0.0375C13.4187 0.10625 13.9062 0.1375 14.3875 0.2375C17.4188 0.85625 19.8937 2.3875 21.6875 4.9125C23.9625 8.11875 24.5688 11.6875 23.45 15.425C22.0563 20.0938 18.8375 22.875 14.0625 23.8188C13.6187 23.9062 13.1688 23.9438 12.725 24C12.225 24 11.725 24 11.225 24C11.1813 23.9875 11.1375 23.975 11.0938 23.9625C10.3813 23.85 9.65 23.7937 8.95625 23.6125C4.31875 22.425 0.9875 18.7938 0.18125 14.0813C0.10625 13.6438 0.05625 13.1938 0 12.75C0 12.2375 0 11.7188 0 11.2C0.0125 11.1375 0.03125 11.0813 0.0375 11.0188C0.11875 10.4688 0.16875 9.91875 0.28125 9.375C1.24375 4.675 5.1125 0.95 9.84375 0.1875C10.3 0.1125 10.7688 0.0625 11.225 0ZM11.975 1.875C6.31875 1.875 1.875 6.325 1.86875 12C1.86875 17.6688 6.3125 22.125 11.975 22.125C17.6375 22.125 22.0812 17.675 22.0812 12C22.0812 6.33125 17.6375 1.875 11.975 1.875Z" fill="#BDBDBD"/>
<path d="M11.4563 12.9187C8.875 12.575 7.1625 10.3813 7.30625 7.95625C7.45 5.56875 9.45 3.6375 11.8 3.56875C14.275 3.5 16.2812 5.2875 16.6125 7.6C16.9688 10.0938 15.25 12.5625 12.5063 12.95C12.775 12.9937 13.05 13.025 13.3188 13.0875C15.5375 13.6 17.1062 14.9 18.0187 16.9937C18.275 17.5875 17.9625 18.1812 17.3563 18.3188C16.925 18.4125 16.5063 18.1875 16.3062 17.7313C15.9937 17.0125 15.55 16.3875 14.9438 15.8875C12.5875 13.9437 8.98125 14.7812 7.73125 17.5688C7.59375 17.875 7.44375 18.1625 7.1 18.2812C6.725 18.4125 6.3875 18.3375 6.1125 18.0562C5.825 17.7687 5.76875 17.4125 5.91875 17.0375C6.24375 16.225 6.71875 15.5 7.34375 14.8875C8.4375 13.8 9.75 13.1625 11.2875 12.9937C11.325 12.9875 11.3625 12.9813 11.4 12.975C11.4125 12.9563 11.4187 12.9437 11.4563 12.9187ZM11.975 11.0625C13.5188 11.0625 14.7875 9.7875 14.7812 8.24375C14.7812 6.70625 13.5188 5.44375 11.9875 5.4375C10.4438 5.43125 9.16875 6.69375 9.16875 8.24375C9.16875 9.7875 10.4313 11.0625 11.975 11.0625Z" fill="#BDBDBD"/>
</svg>
